<?xml version="1.0" ?><!DOCTYPE svg  PUBLIC '-//W3C//DTD SVG 1.1//EN'  'http://www.w3.org/Graphics/SVG/1.1/DTD/svg11.dtd'><svg height="512px" style="enable-background:new 0 0 512 512;" version="1.1" viewBox="0 0 512 512" width="512px" xml:space="preserve" xmlns="http://www.w3.org/2000/svg" xmlns:xlink="http://www.w3.org/1999/xlink"><g id="_x32_56-php"><g><g><path d="M256.001,147.109c123.192,0,217.923,51.893,217.923,108.89S379.12,364.89,256.001,364.89     c-123.194,0-217.925-51.894-217.925-108.891S132.878,147.109,256.001,147.109 M256.001,135.034     c-127.004,0-230,54.121-230,120.965s102.996,120.967,230,120.967c127.003,0,229.998-54.123,229.998-120.967     S383.004,135.034,256.001,135.034z M182.831,246.296c-5.677,29.109-25.73,26.09-50.384,26.09l9.847-50.744     C169.607,221.643,188.15,218.696,182.831,246.296L182.831,246.296z M96.007,323.776h26.378l6.254-32.199     c29.54,0,47.867,2.157,64.83-13.728c18.759-17.251,23.646-47.941,10.278-63.322c-6.971-8.05-18.185-12.003-33.421-12.003H119.51     L96.007,323.776z M229.478,170.253h26.235l-6.254,32.199c22.64,0,43.628-1.653,53.763,7.691     c10.638,9.775,5.535,22.281-5.966,81.291h-26.594c11.069-57.068,13.154-61.812,9.128-66.125     c-3.88-4.168-12.722-3.306-34.068-3.306l-13.513,69.431h-26.234L229.478,170.253L229.478,170.253z M388.969,246.296     c-5.751,29.542-26.379,26.09-50.385,26.09l9.847-50.744C375.887,221.643,394.287,218.696,388.969,246.296z M302.145,323.776     h26.449l6.254-32.199c31.049,0,48.227,1.796,64.83-13.728c18.759-17.251,23.646-47.941,10.279-63.322     c-6.974-8.05-18.186-12.003-33.423-12.003h-50.816L302.145,323.776z" style="fill:#007AFF;"/></g></g></g><g id="Layer_1"/></svg>